<!--?xml version="1.0" encoding="utf-8"?-->
<!-- Generator: Adobe Illustrator 22.0.1, SVG Export Plug-In . SVG Version: 6.00 Build 0)  -->
<svg version="1.1" id="_x31_0" xmlns="http://www.w3.org/2000/svg" xmlns:xlink="http://www.w3.org/1999/xlink" x="0px" y="0px" viewBox="0 0 512 512" style="width: 32px; height: 32px; opacity: 1;" xml:space="preserve">
<style type="text/css">
	.st0{fill:#374149;}
</style>
<g>
	<path class="st0" d="M502.74,183.481v-82.063c0-31.14-25.301-56.511-56.442-56.511h-28.011v33.847v14.809v13.625
		c0,16.266-13.207,29.469-29.473,29.469h-51.786c-16.266,0-29.472-13.203-29.472-29.469V93.562V78.754V45.168v-0.102l0,0v-0.16
		H204.47v33.847v14.809v13.625c0,16.266-13.277,29.469-29.543,29.469h-51.714c-16.266,0-29.543-13.203-29.543-29.469V93.562V78.754
		V44.906H65.728c-31.14,0-56.441,25.371-56.441,56.511v82.063H9.244v266.648C9.244,484.242,36.998,512,71.115,512h369.77
		c34.113,0,61.871-27.758,61.871-61.871V183.481H502.74z M57.904,190.25h0.039v-10.395h396.141v10.395h0.011v259.878
		c0,7.282-5.926,13.211-13.21,13.211H71.115c-7.289,0-13.211-5.93-13.211-13.211V190.25z" style="fill: rgb(75, 75, 75);"></path>
	<polygon class="st0" points="172.088,230.5 172.088,230.317 172.088,230.317 172.088,230.156 111.873,230.156 111.873,290.367 
		172.088,290.367 	" style="fill: rgb(75, 75, 75);"></polygon>
	<rect x="225.893" y="230.156" class="st0" width="60.21" height="60.211" style="fill: rgb(75, 75, 75);"></rect>
	<polygon class="st0" points="339.908,290.207 339.908,290.367 400.123,290.367 400.123,230.156 339.908,230.156 339.908,290.027 
		339.908,290.207 	" style="fill: rgb(75, 75, 75);"></polygon>
	<polygon class="st0" points="172.088,339.414 172.088,339.23 172.088,339.23 172.088,339.07 111.873,339.07 111.873,399.285 
		172.088,399.285 	" style="fill: rgb(75, 75, 75);"></polygon>
	<rect x="225.893" y="339.07" class="st0" width="60.21" height="60.214" style="fill: rgb(75, 75, 75);"></rect>
	<polygon class="st0" points="339.908,399.285 400.123,399.285 400.123,339.07 339.908,339.07 339.908,398.942 339.908,399.125 
		339.908,399.125 	" style="fill: rgb(75, 75, 75);"></polygon>
	<path class="st0" d="M123.213,115.805h51.714c4.798,0,8.688-3.821,8.688-8.618V93.562V78.754V44.906V26.832
		C183.615,12.094,171.522,0,156.717,0h-15.293c-14.805,0-26.898,12.094-26.898,26.832v18.074v33.847v14.809v13.625
		C114.526,111.984,118.416,115.805,123.213,115.805z" style="fill: rgb(75, 75, 75);"></path>
	<path class="st0" d="M337.029,115.805h51.786c4.726,0,8.617-3.821,8.617-8.618V93.562V78.754V44.906V26.832
		C397.431,12.094,385.338,0,370.603,0H355.24c-14.738,0-26.832,12.094-26.832,26.832v18.074v33.847v14.809v13.625
		C328.408,111.984,332.302,115.805,337.029,115.805z" style="fill: rgb(75, 75, 75);"></path>
</g>
</svg>
